<?xml version="1.0" standalone="no"?>
<!DOCTYPE svg PUBLIC "-//W3C//DTD SVG 20010904//EN"
 "http://www.w3.org/TR/2001/REC-SVG-20010904/DTD/svg10.dtd">
<svg version="1.0" xmlns="http://www.w3.org/2000/svg"
 width="933.000000pt" height="933.000000pt" viewBox="0 0 933.000000 933.000000"
 preserveAspectRatio="xMidYMid meet">
<metadata>
Created by potrace 1.14, written by Peter Selinger 2001-2017
</metadata>
<g transform="translate(0.000000,933.000000) scale(0.100000,-0.100000)"
fill="#000000" stroke="none">
<path d="M5507 7233 c-3 -2 -64 -8 -192 -18 -22 -2 -40 -4 -40 -5 0 -1 -9 -3
-20 -4 -29 -4 -108 -16 -136 -21 -108 -21 -185 -37 -239 -52 -30 -8 -61 -15
-67 -16 -7 0 -13 -4 -13 -9 0 -5 -4 -7 -9 -4 -5 3 -35 -4 -67 -15 -33 -11 -66
-22 -74 -24 -8 -2 -15 -4 -15 -5 0 -1 -7 -3 -16 -5 -9 -1 -32 -10 -50 -18 -19
-9 -45 -19 -59 -22 -36 -11 -244 -108 -251 -118 -3 -5 -10 -9 -15 -8 -8 0
-101 -50 -183 -99 -63 -37 -131 -85 -131 -92 0 -5 -6 -8 -13 -8 -7 0 -22 -8
-33 -18 -10 -10 -37 -31 -59 -47 -104 -78 -279 -244 -361 -345 -16 -19 -36
-42 -44 -51 -69 -74 -205 -281 -277 -419 l-26 -50 -215 0 -214 0 -48 48 c-26
26 -119 116 -207 200 l-160 153 -296 0 c-274 0 -297 1 -298 17 -1 9 -1 40 0
68 1 42 -3 52 -17 56 -29 6 -572 2 -578 -5 -8 -8 -9 -650 -2 -663 5 -7 541
-11 590 -5 3 1 5 49 5 108 -1 65 2 111 9 117 7 8 91 11 252 10 l241 -1 88 -86
c49 -47 141 -138 207 -201 l118 -115 479 -3 c287 -2 480 1 482 6 4 13 157 14
157 1 0 -7 3 -7 8 0 9 12 322 14 322 1 0 -5 6 -4 13 2 19 16 21 16 45 3 12 -6
27 -9 33 -5 17 10 149 10 149 0 0 -5 6 -4 13 2 19 16 21 16 45 3 12 -6 27 -9
33 -5 17 10 149 10 149 0 0 -5 6 -4 13 1 12 11 29 10 58 -2 10 -3 20 -2 23 4
4 6 12 8 19 6 7 -3 26 15 44 38 125 164 315 305 531 391 34 13 62 22 62 19 0
-3 6 -1 13 5 6 5 28 13 47 18 19 4 40 9 45 10 37 10 104 24 150 31 46 7 358
12 368 6 5 -3 28 -7 51 -9 45 -4 54 -5 141 -29 33 -9 65 -18 70 -19 9 -3 52
-19 85 -33 8 -3 18 -5 23 -5 4 1 7 -3 7 -8 0 -5 3 -9 8 -8 12 2 66 -23 86 -40
10 -9 19 -15 21 -12 1 3 13 -3 26 -12 13 -10 47 -32 74 -50 56 -36 259 -234
296 -289 13 -19 48 -72 78 -118 47 -72 56 -80 70 -69 9 7 30 20 46 29 17 9 64
35 106 57 42 23 79 39 83 35 3 -3 6 -2 6 4 0 9 50 37 59 33 2 -1 7 3 10 8 8
12 93 57 104 54 4 -1 7 2 7 8 0 5 4 10 8 10 5 0 49 22 98 48 49 27 127 69 174
94 47 25 117 62 155 83 39 21 113 60 165 88 145 76 137 56 74 181 -117 232
-318 485 -504 636 -23 19 -49 41 -57 49 -39 37 -278 187 -381 239 -121 60
-211 98 -224 94 -5 -1 -8 3 -8 8 0 6 -11 10 -24 10 -14 0 -28 5 -31 10 -4 6
-11 8 -16 5 -5 -4 -9 -1 -9 5 0 6 -5 8 -10 5 -6 -4 -16 -3 -23 3 -7 5 -34 15
-62 21 -27 7 -61 17 -75 22 -14 5 -36 10 -50 13 -14 2 -32 7 -40 10 -8 3 -26
8 -40 10 -14 3 -35 7 -46 10 -12 2 -39 7 -60 11 -22 3 -52 8 -69 11 -16 4 -41
8 -55 9 -14 2 -25 4 -25 5 0 0 -20 3 -45 5 -102 8 -151 15 -160 20 -6 4 -10 1
-10 -5 0 -7 -5 -8 -12 -3 -12 7 -474 13 -481 6z m-3979 -1267 l-3 -171 -147 0
c-95 0 -148 3 -149 10 -1 13 -1 248 0 297 l1 37 150 -1 150 -2 -2 -170z"/>
<path d="M1916 4883 c1 -183 4 -336 7 -339 8 -8 571 -9 584 -1 7 4 11 40 11
90 0 45 0 89 1 97 1 14 192 16 1881 14 l1880 -2 1 37 c1 71 1 167 0 213 l-1
47 -912 1 c-2929 3 -2848 2 -2849 25 -1 11 -2 49 -3 85 l-1 65 -183 0 c-101 1
-186 -3 -188 -7 -3 -5 -11 -5 -17 -1 -7 4 -57 8 -112 8 l-100 1 1 -333z m452
-7 l-3 -171 -150 0 -149 0 -1 160 c0 88 1 165 3 171 2 6 56 10 153 10 l149 1
-2 -171z"/>
<path d="M1732 4273 c-9 -13 -24 -32 -32 -42 -8 -11 -22 -29 -30 -41 -8 -12
-31 -44 -50 -70 -19 -27 -53 -74 -75 -106 -77 -109 -49 -98 -251 -99 -99 0
-187 1 -196 3 -15 4 -18 16 -17 81 0 42 0 90 0 106 l-1 30 -298 0 -297 0 -3
-337 -2 -338 32 -1 c18 0 152 -1 298 -2 l265 -1 3 82 3 83 261 -1 c206 -1 263
2 269 12 7 13 121 174 137 193 4 6 34 47 67 93 l59 82 1888 -3 c1038 -2 1889
-1 1889 2 7 36 2 284 -6 289 -16 10 -59 9 -72 -1 -8 -6 -13 -6 -13 0 0 12
-103 11 -112 -2 -5 -7 -10 -7 -15 0 -10 13 -196 13 -205 0 -5 -6 -8 -5 -8 4 0
11 -3 11 -15 1 -8 -7 -15 -8 -15 -3 0 11 -50 10 -68 -1 -7 -4 -12 -4 -12 1 0
4 -40 8 -90 8 -53 0 -90 -4 -90 -10 0 -7 -3 -7 -8 0 -4 6 -14 10 -22 10 -8 0
-18 -4 -22 -10 -5 -7 -8 -7 -8 0 0 13 -170 14 -170 0 0 -7 -3 -7 -8 0 -10 14
-175 14 -184 1 -5 -7 -8 -7 -8 -1 0 7 -466 10 -1376 11 l-1375 1 -17 -24z
m-803 -325 c3 -9 5 -86 3 -170 l-3 -153 -149 0 -150 0 0 170 0 171 146 0 c129
-1 148 -3 153 -18z"/>
<path d="M6861 3759 c-218 -353 -544 -576 -916 -627 -66 -9 -359 -10 -382 -1
-16 6 -22 5 -18 -1 4 -6 -2 -7 -17 -1 -13 4 -45 12 -73 16 -27 5 -54 10 -60
11 -5 2 -19 5 -30 7 -109 25 -370 140 -383 170 -2 4 -10 7 -18 7 -8 0 -14 5
-14 10 0 6 -7 10 -15 10 -8 0 -15 4 -15 8 0 4 -14 16 -30 25 -17 10 -65 53
-108 95 l-78 77 -827 -1 c-842 -1 -877 -2 -877 -37 0 -5 -8 -19 -17 -32 -10
-12 -25 -33 -33 -45 -8 -12 -26 -37 -40 -55 -14 -18 -32 -43 -40 -55 -24 -35
-138 -193 -155 -215 -15 -19 -28 -20 -270 -21 l-254 0 1 65 c0 37 0 75 -1 86
-1 20 -8 20 -299 20 l-298 1 -3 -338 -2 -338 28 -1 c158 -2 565 0 569 3 2 3 5
48 6 101 0 61 5 97 12 100 6 2 147 3 314 3 348 -1 300 -16 395 119 31 44 60
85 65 90 4 6 43 60 86 120 43 61 86 112 95 112 10 1 32 -25 58 -70 23 -40 60
-97 82 -127 86 -118 106 -145 116 -156 6 -6 33 -37 60 -69 120 -138 269 -274
430 -391 39 -28 95 -66 125 -84 30 -19 57 -37 60 -40 5 -6 116 -65 157 -85 13
-5 23 -13 23 -17 0 -5 8 -8 18 -8 10 0 27 -7 38 -15 12 -8 24 -11 28 -8 3 3 6
1 6 -5 0 -7 4 -12 10 -12 5 0 39 -14 75 -30 36 -17 69 -30 74 -30 5 0 30 -9
57 -19 49 -19 72 -27 86 -30 5 -1 25 -8 45 -16 30 -11 97 -31 133 -40 3 0 14
-4 25 -7 11 -4 37 -9 58 -12 21 -4 47 -10 56 -16 10 -5 21 -7 24 -3 4 3 13 1
20 -5 8 -7 16 -10 18 -7 3 2 22 0 44 -5 41 -9 130 -23 153 -23 6 0 12 -3 12
-6 0 -3 15 -6 33 -7 17 0 66 -4 107 -8 105 -11 600 -15 626 -6 11 5 27 4 34 0
8 -5 19 -6 25 -2 5 4 21 8 35 8 14 1 25 3 25 4 0 2 88 13 123 14 17 0 32 4 32
7 0 3 6 6 13 6 19 2 89 12 117 18 50 12 65 15 89 20 13 2 49 12 80 21 31 9 63
18 71 19 8 1 22 5 30 8 8 4 38 14 65 23 240 78 532 235 730 395 117 94 316
298 349 358 5 9 12 18 15 21 12 9 76 104 115 168 36 59 116 215 113 218 -4 3
-316 173 -367 200 -30 16 -57 31 -60 34 -3 3 -21 13 -40 22 -19 10 -80 43
-135 73 -55 31 -112 62 -127 68 -16 6 -28 15 -28 19 0 4 -5 8 -11 8 -6 0 -61
28 -122 62 -62 34 -121 66 -132 72 -11 6 -28 17 -37 24 -9 8 -22 11 -27 7 -6
-3 -11 -3 -11 2 0 8 -56 43 -68 43 -4 0 -27 -32 -51 -71z m-4816 -814 c1 -88
-1 -165 -2 -170 -2 -6 -61 -10 -151 -10 l-147 0 -2 160 c-1 88 0 165 2 171 2
8 49 11 152 10 l148 -1 0 -160z"/>
</g>
</svg>
